<mxfile host="app.diagrams.net" modified="2023-10-01T10:06:55.964Z" agent="Mozilla/5.0 (Windows NT 10.0; Win64; x64; rv:109.0) Gecko/20100101 Firefox/118.0" version="22.0.0" etag="d1S2YdogxF3NBMm2N4p2" type="github">
  <diagram name="Page-1" id="GdMcKfxIqS0opROQa1A0">
    <mxGraphModel>
      <root>
        <mxCell id="0" />
        <mxCell id="1" parent="0" />
      </root>
    </mxGraphModel>
  </diagram>
</mxfile>
